<svg width="179" height="233" viewBox="0 0 179 233" fill="none" xmlns="http://www.w3.org/2000/svg">
<path d="M94.7719 228.297L177.225 104.756C180.462 99.9023 179.149 93.3421 174.286 90.1084C172.551 88.9525 170.512 88.3361 168.427 88.337H103.597V10.5628C103.597 4.73044 98.865 0 93.0261 0C89.4898 0 86.1906 1.76447 84.2282 4.70298L1.77555 128.244C-1.4618 133.098 -0.148988 139.654 4.71047 142.892C6.44643 144.049 8.48653 144.666 10.5734 144.666H75.4029V222.437C75.4029 228.27 80.1351 233 85.9741 233C89.5104 233 92.813 231.236 94.7719 228.297Z" fill="url(#paint0_linear_2084_58)"/>
<defs>
<linearGradient id="paint0_linear_2084_58" x1="89.5" y1="0" x2="89.5" y2="233" gradientUnits="userSpaceOnUse">
<stop stop-color="#00C7FF"/>
<stop offset="1" stop-color="#1764F0"/>
</linearGradient>
</defs>
</svg>
